<svg xmlns="http://www.w3.org/2000/svg" width="271" height="251" fill="none"><path fill="#00DDB3" d="M223.907 69.196c-51.97-14.758-82.627 17.872-102.921 39.512l-12.841 13.416c-21.3 22.686-30.016 28.633-46.588 23.927a28.101 28.101 0 0 0-21.424 2.531 28.362 28.362 0 0 0-13.403 16.994 28.363 28.363 0 0 0 2.47 21.502 28.104 28.104 0 0 0 16.897 13.414c51.94 14.751 82.627-17.872 102.912-39.484l13.082-13.501c21.299-22.687 30.015-28.634 46.587-23.927a28.108 28.108 0 0 0 21.425-2.533 28.36 28.36 0 0 0 13.402-16.993 28.361 28.361 0 0 0-2.47-21.503 28.103 28.103 0 0 0-16.896-13.413l-.232.058z"/><path fill="#000" d="m79.76 96.552 32.323-9.212-2.772-9.727-20.844 5.94L80.08 54.13 68.6 57.401l11.16 39.151zm29.176-24.973c2.531 8.881 11.753 13.962 21.239 11.258 9.486-2.703 14.644-11.882 12.112-20.764-2.548-8.941-11.77-14.022-21.256-11.318-9.485 2.703-14.643 11.882-12.095 20.824zm11.117-3.169c-1.05-3.685.471-7.058 3.734-7.988 3.262-.93 6.333 1.134 7.383 4.82 1.068 3.746-.488 6.998-3.75 7.928-3.263.93-6.299-1.014-7.367-4.76zm29.361-2.488c1.929 6.767 6.88 9.471 12.801 7.784 2.719-.775 5.827-2.249 7.951-4.88l-5.25-7.192c-.631.768-1.598 1.5-2.504 1.76-.967.275-1.829-.002-2.243-1.452l-3.237-11.359 6.827-1.946-2.479-8.7-6.828 1.946-2.359-8.278-10.221 5.853 1.584 5.559-4.531 1.291 2.479 8.7 4.532-1.29 3.478 12.204zm22.629-6.45c1.928 6.767 6.88 9.472 12.801 7.784 2.719-.775 5.827-2.248 7.951-4.879l-5.25-7.192c-.631.768-1.598 1.5-2.504 1.759-.967.275-1.83-.001-2.243-1.451l-3.237-11.36 6.827-1.945-2.48-8.7-6.827 1.946-2.359-8.278-10.221 5.853 1.584 5.559-4.532 1.291 2.48 8.7 4.531-1.291 3.479 12.204zm22.932 4.244 10.996-3.134-8.799-30.874-10.996 3.134 8.799 30.874zm-12.03-39.23c.965 3.383 4.614 5.414 7.997 4.45 3.504-1 5.535-4.648 4.571-8.032-.982-3.444-4.631-5.474-8.135-4.475-3.384.964-5.414 4.613-4.433 8.057zm53.773 24.85-5.804-6.38c-1.623 1.638-4.178 3.215-6.777 3.956-2.96.844-5.989.53-7.722-2.11l20.482-5.838s-.24-1.761-.774-3.634c-2.548-8.942-11.287-14.16-20.048-11.663-9.123 2.6-14.039 11.71-11.491 20.652 2.893 10.15 12.539 13.738 21.904 11.069 3.806-1.085 7.389-2.956 10.23-6.052zm-18.18-17.03c2.84-.809 5.626.488 6.798 3.224l-10.996 3.134c-.145-3.03 1.479-5.582 4.198-6.357z"/><mask id="a" fill="#fff"><path d="M66.488 101.217c4.158-1.185 6.548-5.588 5.338-9.834-1.21-4.247-5.563-6.729-9.721-5.543-4.158 1.185-6.548 5.588-5.338 9.834 1.21 4.247 5.562 6.729 9.72 5.543z"/></mask><path fill="#000" stroke="#000" stroke-width="3.773" d="M66.488 101.217c4.158-1.185 6.548-5.588 5.338-9.834-1.21-4.247-5.563-6.729-9.721-5.543-4.158 1.185-6.548 5.588-5.338 9.834 1.21 4.247 5.562 6.729 9.72 5.543z" mask="url(#a)"/><path fill="#FF8EED" d="m171.302 199.402-33.848-17.881a9.011 9.011 0 0 0-12.173 3.746l-17.939 33.811a8.982 8.982 0 0 0 5.343 12.833 57.298 57.298 0 0 0 33.604-.035 57.3 57.3 0 0 0 27.808-18.866 9.007 9.007 0 0 0 1.749-3.53 8.973 8.973 0 0 0-1.546-7.525 8.985 8.985 0 0 0-2.998-2.553z"/></svg>